<mxfile host="app.diagrams.net" modified="2024-03-05T12:09:13.557Z" agent="Mozilla/5.0 (Macintosh; Intel Mac OS X 10_15_7) AppleWebKit/537.36 (KHTML, like Gecko) Chrome/121.0.0.0 Safari/537.36" version="24.0.1" etag="xlVBAe3zqZU9ZFeJYfIy" type="github">
  <diagram name="第 1 页" id="PGUDQENj0DnAn80L-2uw">
    <mxGraphModel>
      <root>
        <mxCell id="0" />
        <mxCell id="1" parent="0" />
      </root>
    </mxGraphModel>
  </diagram>
</mxfile>
